<svg id="Layer_2" data-name="Layer 2" xmlns="http://www.w3.org/2000/svg" viewBox="0 0 89.47 19.7"><defs><style>.cls-1{fill:#0c0c0c;}</style></defs><path class="cls-1" d="M210.42,285.07l-3.57,1.49v3h-2.48v3.23h2.43v6.26a4,4,0,0,0,4.27,4.3,5.26,5.26,0,0,0,2.05-.33v-3.14a5.71,5.71,0,0,1-1.12.1c-1,0-1.58-.38-1.58-1.55V292.8h2.7v-3.23h-2.7Z" transform="translate(-152.99 -283.67)"/><polygon class="cls-1" points="18.25 5.91 15.76 14.55 12.83 5.91 9.25 5.91 6.32 14.55 3.83 5.91 0 5.91 4.29 19.37 8.15 19.37 11.04 10.3 13.95 19.37 17.78 19.37 22.08 5.91 18.25 5.91"/><path class="cls-1" d="M238.88,285.07v5.28a6.22,6.22,0,0,0-3.1-1.07l-.21,0h-.39c-.2,0-.4,0-.6,0a6.35,6.35,0,0,0-5.82,5.51,7.65,7.65,0,0,0-.13,1.36.66.66,0,0,0,0,.14h0c0,.12,0,.23,0,.34h0c0,.2,0,.4,0,.59.38,3.45,2.8,6.12,6.51,6.12a6.4,6.4,0,0,0,3.78-1.16V303h.14l3.37,0V283.67Zm-3.32,15a3.81,3.81,0,0,1,0-7.6c1.9,0,3.38,1.34,3.38,3.75S237.46,300.1,235.56,300.1Z" transform="translate(-152.99 -283.67)"/><path class="cls-1" d="M227.29,294.78a6.49,6.49,0,0,0-12.84,0h0a8.43,8.43,0,0,0-.13,1.52h0a7.3,7.3,0,0,0,.05.94h0c.37,3.45,2.79,6.12,6.5,6.12a6.24,6.24,0,0,0,6-4.16l-3.22-.68a3.07,3.07,0,0,1-2.82,1.92c-1.73,0-2.9-1.37-3.2-3.2h9.71c0-.31.05-.62.05-.94h0a9.44,9.44,0,0,0-.13-1.52Zm-9.45,0a3.17,3.17,0,0,1,6.06,0Z" transform="translate(-152.99 -283.67)"/><path class="cls-1" d="M185.39,290.47a7.18,7.18,0,0,0-1.58-.82,5.66,5.66,0,0,0-1.8-.39h-.39a6.82,6.82,0,0,0-6.56,7,2.26,2.26,0,0,0,0,.26v.15a6.8,6.8,0,0,0,6.46,6.66H182a6.31,6.31,0,0,0,3.4-1.27V303h3.51V289.57h-3.51ZM182,300.11a3.81,3.81,0,0,1,0-7.61c1.9,0,3.37,1.34,3.37,3.75S183.9,300.11,182,300.11Z" transform="translate(-152.99 -283.67)"/><path class="cls-1" d="M198.46,289.22a4.48,4.48,0,0,0-3.83,1.94v-1.59H191V303h3.64v-7.74a2.53,2.53,0,0,1,2.52-2.79,2.37,2.37,0,0,1,2.49,2.68V303h3.64v-8.48C203.33,291.6,201.8,289.22,198.46,289.22Z" transform="translate(-152.99 -283.67)"/></svg>